HIERARCHY
ROOT Hips
{
	OFFSET 0.00000 0.00000 0.00000
	CHANNELS 6 Xposition Yposition Zposition Zrotation Yrotation Xrotation 
	JOINT LHipJoint
	{
		OFFSET 0 0 0
		CHANNELS 3 Zrotation Yrotation Xrotation
		JOINT LeftUpLeg
		{
			OFFSET 1.49846 -1.74315 1.08250
			CHANNELS 3 Zrotation Yrotation Xrotation
			JOINT LeftLeg
			{
				OFFSET 2.40966 -6.62050 0.00000
				CHANNELS 3 Zrotation Yrotation Xrotation
				JOINT LeftFoot
				{
					OFFSET 2.68066 -7.36505 0.00000
					CHANNELS 3 Zrotation Yrotation Xrotation
					JOINT LeftToeBase
					{
						OFFSET 0.14291 -0.39265 2.35870
						CHANNELS 3 Zrotation Yrotation Xrotation
						End Site
						{
							OFFSET 0.00000 -0.00000 1.20470
						}
					}
				}
			}
		}
	}
	JOINT RHipJoint
	{
		OFFSET 0 0 0
		CHANNELS 3 Zrotation Yrotation Xrotation
		JOINT RightUpLeg
		{
			OFFSET -1.46318 -1.74316 1.08250
			CHANNELS 3 Zrotation Yrotation Xrotation
			JOINT RightLeg
			{
				OFFSET -2.39759 -6.58734 0.00000
				CHANNELS 3 Zrotation Yrotation Xrotation
				JOINT RightFoot
				{
					OFFSET -2.63570 -7.24154 0.00000
					CHANNELS 3 Zrotation Yrotation Xrotation
					JOINT RightToeBase
					{
						OFFSET -0.17578 -0.48294 2.47180
						CHANNELS 3 Zrotation Yrotation Xrotation
						End Site
						{
							OFFSET -0.00000 -0.00000 1.26600
						}
					}
				}
			}
		}
	}
	JOINT LowerBack
	{
		OFFSET 0 0 0
		CHANNELS 3 Zrotation Yrotation Xrotation
		JOINT Spine
		{
			OFFSET 0.00843 2.19877 -0.20423
			CHANNELS 3 Zrotation Yrotation Xrotation
			JOINT Spine1
			{
				OFFSET -0.03080 2.21436 -0.05138
				CHANNELS 3 Zrotation Yrotation Xrotation
				JOINT Neck
				{
					OFFSET 0 0 0
					CHANNELS 3 Zrotation Yrotation Xrotation
					JOINT Neck1
					{
						OFFSET -0.04063 1.58841 0.30440
						CHANNELS 3 Zrotation Yrotation Xrotation
						JOINT Head
						{
							OFFSET 0.09277 1.59484 -0.39337
							CHANNELS 3 Zrotation Yrotation Xrotation
							End Site
							{
								OFFSET 0.03488 1.66530 -0.17040
							}
						}
					}
				}
				JOINT LeftShoulder
				{
					OFFSET 0 0 0
					CHANNELS 3 Zrotation Yrotation Xrotation
					JOINT LeftArm
					{
						OFFSET 3.03849 1.31522 0.02556
						CHANNELS 3 Zrotation Yrotation Xrotation
						JOINT LeftForeArm
						{
							OFFSET 5.25537 -0.00000 0.00000
							CHANNELS 3 Zrotation Yrotation Xrotation
							JOINT LeftHand
							{
								OFFSET 3.38855 -0.00000 -0.00000
								CHANNELS 3 Zrotation Yrotation Xrotation
								JOINT LeftFingerBase
								{
									OFFSET 0 0 0
									CHANNELS 3 Zrotation Yrotation Xrotation
									JOINT LeftHandIndex1
									{
										OFFSET 0.61452 -0.00000 0.00000
										CHANNELS 3 Zrotation Yrotation Xrotation
										End Site
										{
											OFFSET 0.49544 -0.00000 0.00000
										}
									}
								}
								JOINT LThumb
								{
									OFFSET 0 0 0
									CHANNELS 3 Zrotation Yrotation Xrotation
									End Site
									{
										OFFSET 0.50300 -0.00000 0.50300
									}
								}
							}
						}
					}
				}
				JOINT RightShoulder
				{
					OFFSET 0 0 0
					CHANNELS 3 Zrotation Yrotation Xrotation
					JOINT RightArm
					{
						OFFSET -3.06926 1.12091 -0.13185
						CHANNELS 3 Zrotation Yrotation Xrotation
						JOINT RightForeArm
						{
							OFFSET -5.38183 -0.00000 0.00000
							CHANNELS 3 Zrotation Yrotation Xrotation
							JOINT RightHand
							{
								OFFSET -3.16988 -0.00000 0.00000
								CHANNELS 3 Zrotation Yrotation Xrotation
								JOINT RightFingerBase
								{
									OFFSET 0 0 0
									CHANNELS 3 Zrotation Yrotation Xrotation
									JOINT RightHandIndex1
									{
										OFFSET -0.63768 -0.00000 0.00000
										CHANNELS 3 Zrotation Yrotation Xrotation
										End Site
										{
											OFFSET -0.51411 -0.00000 0.00000
										}
									}
								}
								JOINT RThumb
								{
									OFFSET 0 0 0
									CHANNELS 3 Zrotation Yrotation Xrotation
									End Site
									{
										OFFSET -0.52196 -0.00000 0.52196
									}
								}
							}
						}
					}
				}
			}
		}
	}
}
MOTION
Frames: 7
Frame Time: .0083333
3.2380 17.0589 -22.2822 22.8797 -3.3140 76.8823 0.0000 0.0000 0.0000 -28.5232 -21.1830 -17.5697 6.9131 15.2583 48.5450 0.2836 7.9755 10.2732 0.0792 -1.8154 -4.9957 0.0000 0.0000 0.0000 0.2636 -33.0637 -27.3476 -11.0827 -17.9753 63.0497 0.0010 -4.6847 -6.6516 -1.3326 -7.3098 20.6365 -4.9820 -4.9937 6.3161 -6.9826 -8.5591 -9.7611 -3.3970 -4.0767 -14.8586 -8.0319 -7.5344 -21.9614 12.3024 -9.3185 4.8374 4.1515 -3.8159 5.9688 -0.0000 -0.0000 0.0000 -36.0087 -22.7642 52.7460 147.4427 -42.9870 -106.8808 -0.0000 0.0000 -34.2327 34.5182 4.7783 3.2789 -7.1250 0.0000 -0.0000 6.5681 35.7086 -1.5078 -0.0000 -0.0000 0.0000 38.4255 23.5635 35.6548 -135.1559 50.6919 -97.8820 0.0000 0.0000 119.1520 -11.1881 -14.2974 2.7964 7.1250 -0.0000 -0.0000 14.9184 -44.0209 0.3691
3.2303 17.0799 -22.3004 22.8878 -3.1666 76.5070 0.0000 0.0000 0.0000 -28.6722 -20.8335 -17.2689 7.1658 15.4699 49.4986 0.2884 8.1435 10.3918 0.0670 -1.6703 -4.5954 0.0000 0.0000 0.0000 -0.1365 -33.4929 -26.9281 -11.4019 -18.1262 64.0799 -0.0044 -4.4349 -6.4913 -1.3925 -7.4656 21.1023 -5.0109 -4.9511 6.4080 -7.0018 -8.5245 -9.8376 -3.4027 -4.0545 -15.0107 -7.9673 -7.4818 -21.8251 12.1973 -9.2939 5.2004 4.1112 -3.8049 6.0516 0.0000 -0.0000 0.0000 -35.9952 -24.7239 51.2428 146.4492 -43.7491 -106.1985 -0.0000 0.0000 -35.0732 34.6882 5.4904 3.7887 -7.1250 0.0000 -0.0000 6.7475 36.5750 -1.4060 0.0000 -0.0000 0.0000 38.6157 25.1343 34.3548 -133.8193 51.3340 -96.8430 0.0000 0.0000 118.1770 -10.7595 -13.7535 2.5868 7.1250 -0.0000 -0.0000 15.1367 -43.4422 0.5965
3.2225 17.1012 -22.3189 22.9220 -3.0126 76.1477 0.0000 0.0000 0.0000 -28.8140 -20.5073 -16.9852 7.4258 15.6802 50.4668 0.2927 8.3016 10.5025 0.0547 -1.5099 -4.1530 0.0000 0.0000 0.0000 -0.5369 -33.9282 -26.5224 -11.7264 -18.2726 65.1190 -0.0086 -4.1941 -6.3155 -1.4468 -7.6038 21.5170 -5.0254 -4.9182 6.4982 -7.0219 -8.5003 -9.9042 -3.4157 -4.0392 -15.1527 -7.9447 -7.4645 -21.6308 12.1543 -9.3089 5.4768 4.0937 -3.8140 6.1078 0.0000 -0.0000 0.0000 -35.8531 -26.7690 49.7239 145.2420 -44.6385 -105.3570 -0.0000 0.0000 -35.9141 34.8471 6.0984 4.2303 -7.1250 0.0000 -0.0000 6.9126 37.3175 -1.3145 0.0000 -0.0000 0.0000 38.7351 26.7566 33.0792 -132.2460 52.0485 -95.6084 0.0000 0.0000 117.2340 -10.2924 -13.2448 2.3824 7.1250 -0.0000 -0.0000 15.3991 -42.8967 0.8202
3.2145 17.1229 -22.3378 22.9765 -2.8519 75.8003 0.0000 0.0000 0.0000 -28.9465 -20.1986 -16.7161 7.6925 15.8883 51.4472 0.2978 8.4604 10.6220 0.0443 -1.3588 -3.7366 0.0000 0.0000 0.0000 -0.9386 -34.3709 -26.1260 -12.0576 -18.4149 66.1711 -0.0124 -3.9596 -6.1446 -1.5023 -7.7416 21.9321 -5.0259 -4.8949 6.5940 -7.0452 -8.4874 -9.9570 -3.4374 -4.0314 -15.2850 -7.9607 -7.4709 -21.4145 12.1846 -9.3508 5.6916 4.1032 -3.8339 6.1500 0.0000 0.0000 0.0000 -35.5912 -28.8669 48.2116 143.8251 -45.6331 -104.3526 -0.0000 0.0000 -36.7586 34.9669 6.6099 4.6024 -7.1250 0.0000 -0.0000 7.0397 37.9422 -1.2305 0.0000 0.0000 0.0000 38.7769 28.4356 31.8172 -130.4187 52.8252 -94.1598 0.0000 0.0000 116.3070 -9.8903 -12.7369 2.2014 7.1250 -0.0000 -0.0000 15.6047 -42.3612 1.0438
3.2069 17.1448 -22.3572 23.0615 -2.6750 75.4675 0.0000 0.0000 0.0000 -29.0663 -19.9239 -16.4566 7.9651 16.0936 52.4370 0.3016 8.6190 10.7262 0.0323 -1.1597 -3.1884 0.0000 0.0000 0.0000 -1.3381 -34.8400 -25.7471 -12.3982 -18.5540 67.2455 -0.0146 -3.7604 -5.9707 -1.5585 -7.8785 22.3456 -5.0000 -4.8863 6.6918 -7.0699 -8.4898 -9.9917 -3.4719 -4.0344 -15.4010 -7.9997 -7.4885 -21.2185 12.2524 -9.4025 5.8743 4.1272 -3.8563 6.1894 -0.0000 0.0000 0.0000 -35.2491 -30.9869 46.7227 142.2014 -46.7102 -103.1812 -0.0000 0.0000 -37.5651 34.9966 7.0839 4.9347 -7.1250 0.0000 -0.0000 7.0870 38.5157 -1.1386 -0.0000 0.0000 0.0000 38.7385 30.1568 30.5664 -128.3443 53.6418 -92.4980 0.0000 0.0000 115.4440 -9.5758 -12.2094 2.0433 7.1250 -0.0000 -0.0000 15.7295 -41.8173 1.2698
3.1989 17.1668 -22.3767 23.1391 -2.5039 75.1274 0.0000 0.0000 0.0000 -29.1841 -19.6302 -16.1951 8.2429 16.2951 53.4331 0.3055 8.7666 10.8269 0.0225 -0.9674 -2.6590 0.0000 0.0000 0.0000 -1.7590 -35.3000 -25.3527 -12.7487 -18.6895 68.3431 -0.0161 -3.5933 -5.8174 -1.6298 -8.0482 22.8604 -4.9855 -4.8758 6.8134 -7.0947 -8.4919 -10.0130 -3.4983 -4.0356 -15.5144 -8.0400 -7.4898 -21.0497 12.3263 -9.4311 6.0565 4.1561 -3.8662 6.2310 0.0000 0.0000 0.0000 -34.8214 -33.1281 45.2716 140.3360 -47.8695 -101.8104 -0.0000 0.0000 -38.4030 34.9467 7.4463 5.1749 -7.1250 0.0000 -0.0000 7.0590 38.9476 -1.0588 0.0000 0.0000 0.0000 38.6149 31.9049 29.3181 -125.9917 54.4895 -90.5929 0.0000 0.0000 114.6100 -9.3328 -11.6719 1.9043 7.1250 -0.0000 -0.0000 15.7916 -41.2720 1.4938
3.1904 17.1886 -22.3963 23.2112 -2.3458 74.7898 0.0000 0.0000 0.0000 -29.3074 -19.3301 -15.9379 8.5256 16.4925 54.4344 0.3097 8.9132 10.9314 0.0152 -0.7958 -2.1872 0.0000 0.0000 0.0000 -2.2067 -35.7571 -24.9619 -13.1122 -18.8223 69.4735 -0.0171 -3.4667 -5.6958 -1.7112 -8.2367 23.4352 -4.9922 -4.8634 6.9537 -7.1203 -8.4955 -10.0280 -3.5126 -4.0347 -15.6292 -8.0698 -7.4740 -20.8992 12.3960 -9.4383 6.2445 4.1847 -3.8649 6.2743 0.0000 0.0000 0.0000 -34.3266 -35.2656 43.8527 138.2189 -49.0904 -100.2251 -0.0000 0.0000 -39.2401 34.7524 7.7757 5.3624 -7.1250 0.0000 -0.0000 6.9017 39.3265 -0.9703 0.0000 0.0000 0.0000 38.4012 33.6636 28.0690 -123.3477 55.3498 -88.4290 0.0000 0.0000 113.8190 -9.2070 -11.0772 1.7838 7.1250 -0.0000 -0.0000 15.7404 -40.6826 1.7243
